<svg xmlns="http://www.w3.org/2000/svg" viewBox="0 0 900 600">
  <!-- Red background -->
  <rect width="900" height="600" fill="#BF0A30"/>
  <!-- White separator stripe near right -->
  <rect x="818" y="0" width="24" height="600" fill="#ffffff"/>
  <!-- Blue stripe at far right -->
  <rect x="842" y="0" width="58" height="600" fill="#002868"/>
  <!-- Blue circle in center -->
  <circle cx="450" cy="300" r="165" fill="#002868"/>
  <!-- Three white 5-pointed stars side by side in the blue circle -->
  <!-- Left star center (380,300) -->
  <polygon points="380,258 389,287 418,287 395,304 404,333 380,316 356,333 365,304 342,287 371,287" fill="#ffffff"/>
  <!-- Center star (450,300) -->
  <polygon points="450,258 459,287 488,287 465,304 474,333 450,316 426,333 435,304 412,287 441,287" fill="#ffffff"/>
  <!-- Right star (520,300) -->
  <polygon points="520,258 529,287 558,287 535,304 544,333 520,316 496,333 505,304 482,287 511,287" fill="#ffffff"/>
</svg>
